<?xml version="1.0" encoding="UTF-8"?>
<svg width="48px" height="30px" viewBox="0 0 48 30" version="1.1" xmlns="http://www.w3.org/2000/svg" xmlns:xlink="http://www.w3.org/1999/xlink">
    <!-- Generator: Sketch 44.1 (41455) - http://www.bohemiancoding.com/sketch -->
    <title>next</title>
    <desc>Created with Sketch.</desc>
    <defs>
        <filter x="-33.1%" y="-12.5%" width="170.0%" height="135.0%" filterUnits="objectBoundingBox" id="filter-1">
            <feOffset dx="0" dy="2" in="SourceAlpha" result="shadowOffsetOuter1"></feOffset>
            <feGaussianBlur stdDeviation="2" in="shadowOffsetOuter1" result="shadowBlurOuter1"></feGaussianBlur>
            <feColorMatrix values="0 0 0 0 0   0 0 0 0 0   0 0 0 0 0  0 0 0 0.5 0" type="matrix" in="shadowBlurOuter1" result="shadowMatrixOuter1"></feColorMatrix>
            <feMerge>
                <feMergeNode in="shadowMatrixOuter1"></feMergeNode>
                <feMergeNode in="SourceGraphic"></feMergeNode>
            </feMerge>
        </filter>
    </defs>
    <g id="Nettside" stroke="none" stroke-width="1" fill="none" fill-rule="evenodd">
        <g id="Desktop-HD-Copy" transform="translate(-696.000000, -980.000000)" fill-rule="nonzero" fill="#FFFFFF">
            <g id="next" filter="url(#filter-1)" transform="translate(719.585774, 993.000000) rotate(90.000000) translate(-719.585774, -993.000000) translate(709.000000, 973.000000)">
                <path d="M20.8143096,19.1694561 L1.97748954,0.332635983 C1.5339749,-0.110878661 0.822677824,-0.110878661 0.37916318,0.332635983 C-0.0643514644,0.776150628 -0.0643514644,1.4874477 0.37916318,1.93096234 L18.412636,19.9644351 L0.37916318,37.9979079 C-0.0643514644,38.4414226 -0.0643514644,39.1527197 0.37916318,39.5962343 C0.596736402,39.8138075 0.889623431,39.9309623 1.17414226,39.9309623 C1.45866109,39.9309623 1.75154812,39.8221757 1.96912134,39.5962343 L20.8059414,20.7594142 C21.2494561,20.3242678 21.2494561,19.6046025 20.8143096,19.1694561 Z" id="Shape"></path>
            </g>
        </g>
    </g>
</svg>