<?xml version="1.0" encoding="UTF-8"?>
<svg width="48px" height="29px" viewBox="0 0 48 29" version="1.1" xmlns="http://www.w3.org/2000/svg" xmlns:xlink="http://www.w3.org/1999/xlink">
    <!-- Generator: Sketch 44.1 (41455) - http://www.bohemiancoding.com/sketch -->
    <title>next copy</title>
    <desc>Created with Sketch.</desc>
    <defs>
        <filter x="-36.4%" y="-12.5%" width="168.2%" height="135.0%" filterUnits="objectBoundingBox" id="filter-1">
            <feOffset dx="0" dy="2" in="SourceAlpha" result="shadowOffsetOuter1"></feOffset>
            <feGaussianBlur stdDeviation="2" in="shadowOffsetOuter1" result="shadowBlurOuter1"></feGaussianBlur>
            <feColorMatrix values="0 0 0 0 0   0 0 0 0 0   0 0 0 0 0  0 0 0 0.5 0" type="matrix" in="shadowBlurOuter1" result="shadowMatrixOuter1"></feColorMatrix>
            <feMerge>
                <feMergeNode in="shadowMatrixOuter1"></feMergeNode>
                <feMergeNode in="SourceGraphic"></feMergeNode>
            </feMerge>
        </filter>
    </defs>
    <g id="Nettside" stroke="none" stroke-width="1" fill="none" fill-rule="evenodd">
        <g id="Desktop-HD-Copy" transform="translate(-696.000000, -1052.000000)" fill-rule="nonzero" fill="#222222">
            <g id="next-copy" filter="url(#filter-1)" transform="translate(720.000000, 1064.171548) rotate(-90.000000) translate(-720.000000, -1064.171548) translate(709.000000, 1044.171548)">
                <path d="M20.7677824,19.1694561 L1.93096234,0.332635983 C1.4874477,-0.110878661 0.776150628,-0.110878661 0.332635983,0.332635983 C-0.110878661,0.776150628 -0.110878661,1.4874477 0.332635983,1.93096234 L18.3661088,19.9644351 L0.332635983,37.9979079 C-0.110878661,38.4414226 -0.110878661,39.1527197 0.332635983,39.5962343 C0.550209205,39.8138075 0.843096234,39.9309623 1.12761506,39.9309623 C1.41213389,39.9309623 1.70502092,39.8221757 1.92259414,39.5962343 L20.7594142,20.7594142 C21.2029289,20.3242678 21.2029289,19.6046025 20.7677824,19.1694561 Z" id="Shape"></path>
            </g>
        </g>
    </g>
</svg>